<svg width="96" height="96" viewBox="0 0 96 96" fill="none" xmlns="http://www.w3.org/2000/svg">
  <rect x="12" y="15" width="8" height="8" rx="1.5" fill="#18D4D6"/>
  <rect x="26" y="8" width="6" height="6" rx="1.2" fill="#16CFE0"/>
  <rect x="39" y="18" width="7" height="7" rx="1.4" fill="#23C6E8"/>
  <rect x="10" y="35" width="6" height="6" rx="1.2" fill="#1CC7E6"/>
  <rect x="25" y="30" width="9" height="9" rx="1.8" fill="#12BFD4"/>
  <rect x="42" y="34" width="6" height="6" rx="1.2" fill="#62A7FF"/>
  <rect x="15" y="52" width="7" height="7" rx="1.4" fill="#528DFF"/>
  <rect x="32" y="50" width="6" height="6" rx="1.2" fill="#7B7CFF"/>
  <path d="M30 61C41.7 47.4 54.6 42.4 68.5 46.1C76.2 48.2 82.1 52.8 86 57.6V69.2C80.7 62.4 73.6 57 64.6 55.8C53.4 54.4 42.4 59.2 32 70.3L30 61Z" fill="url(#paint0_linear)"/>
  <path d="M18 68.5C31.4 57.7 44.7 54.2 58.4 58.2C69.4 61.5 77.3 68.8 86 75.5V85.7C77.1 78.8 69.5 72.1 58.9 68.9C46.3 65 34 68.1 21.8 78.8L18 68.5Z" fill="url(#paint1_linear)"/>
  <path d="M31.5 42.4C45.4 29.5 61.8 27.8 78.4 38.5C81.4 40.4 84 42.6 86 45V55.4C78.6 47.9 70.7 42.5 60.8 41.1C51.6 39.8 43 42.8 34.4 50.7L31.5 42.4Z" fill="url(#paint2_linear)"/>
  <defs>
    <linearGradient id="paint0_linear" x1="30" y1="53.2" x2="86" y2="53.2" gradientUnits="userSpaceOnUse">
      <stop stop-color="#12D5D5"/>
      <stop offset="0.5" stop-color="#2E92FF"/>
      <stop offset="1" stop-color="#725CFF"/>
    </linearGradient>
    <linearGradient id="paint1_linear" x1="18" y1="69.8" x2="86" y2="69.8" gradientUnits="userSpaceOnUse">
      <stop stop-color="#14C9DD"/>
      <stop offset="0.48" stop-color="#238AFF"/>
      <stop offset="1" stop-color="#8D61FF"/>
    </linearGradient>
    <linearGradient id="paint2_linear" x1="31.5" y1="39.8" x2="86" y2="39.8" gradientUnits="userSpaceOnUse">
      <stop stop-color="#21D9CD"/>
      <stop offset="0.6" stop-color="#31A7FF"/>
      <stop offset="1" stop-color="#866CFF"/>
    </linearGradient>
  </defs>
</svg>
